<svg width="1920" height="166" viewBox="0 0 1920 166" fill="none" xmlns="http://www.w3.org/2000/svg">
<path fill-rule="evenodd" clip-rule="evenodd" d="M0 0L79.5 6.25578C160.5 12.5116 319.5 25.0231 480 46.1965C640.5 67.8512 799.5 98.6488 960 104.905C1120.5 111.16 1279.5 92.3931 1440 86.6185C1600.5 80.3627 1759.5 86.6185 1840.5 89.5058L1920 92.3931V166.5H1840.5C1759.5 166.5 1600.5 166.5 1440 166.5C1279.5 166.5 1120.5 166.5 960 166.5C799.5 166.5 640.5 166.5 480 166.5C319.5 166.5 160.5 166.5 79.5 166.5H0V0Z" fill="#97D700" fill-opacity="0.8"/>
<path fill-rule="evenodd" clip-rule="evenodd" d="M0 66.6L64 79.92C128 93.24 256 119.88 384 113.22C512 106.56 640 66.6 768 39.96C896 13.32 1024 0 1152 0C1280 0 1408 13.32 1536 36.63C1664 59.94 1792 93.24 1856 109.89L1920 126.54V166.5H1856C1792 166.5 1664 166.5 1536 166.5C1408 166.5 1280 166.5 1152 166.5C1024 166.5 896 166.5 768 166.5C640 166.5 512 166.5 384 166.5C256 166.5 128 166.5 64 166.5H0V66.6Z" fill="#20BAE8" fill-opacity="0.8"/>
</svg>
